HIERARCHY
ROOT Hips
{
 OFFSET 0.000000 0.000000 0.000000
 CHANNELS 6 Xposition Yposition Zposition Yrotation Xrotation Zrotation
 JOINT Chest
 {
  OFFSET 0.000000 9.585900 0.002600
  CHANNELS 3 Yrotation Xrotation Zrotation
  JOINT Chest2
  {
   OFFSET 0.000000 9.601200 -0.005300
   CHANNELS 3 Yrotation Xrotation Zrotation
   JOINT Chest3
   {
    OFFSET 0.000000 9.561800 0.000000
    CHANNELS 3 Yrotation Xrotation Zrotation
    JOINT Chest4
    {
     OFFSET 0.000000 9.552100 0.000000
     CHANNELS 3 Yrotation Xrotation Zrotation
     JOINT Neck
     {
      OFFSET 0.000000 14.453000 0.000000
      CHANNELS 3 Yrotation Xrotation Zrotation
      JOINT Head
      {
       OFFSET 0.000000 8.936500 -0.011300
       CHANNELS 3 Yrotation Xrotation Zrotation
       End Site
       {
        OFFSET 0.000000 17.073600 -0.006000
       }
      }
     }
     JOINT RightCollar
     {
      OFFSET -2.921100 9.558500 0.000000
      CHANNELS 3 Yrotation Xrotation Zrotation
      JOINT RightShoulder
      {
       OFFSET -13.519700 0.000000 0.000000
       CHANNELS 3 Yrotation Xrotation Zrotation
       JOINT RightElbow
       {
        OFFSET 0.000000 -29.696600 0.000000
        CHANNELS 3 Yrotation Xrotation Zrotation
        JOINT RightWrist
        {
         OFFSET 0.000000 -24.004700 0.000000
         CHANNELS 3 Yrotation Xrotation Zrotation
         End Site
         {
          OFFSET 0.000000 -17.728500 0.000000
         }
        }
       }
      }
     }
     JOINT LeftCollar
     {
      OFFSET 2.921100 9.558500 0.000000
      CHANNELS 3 Yrotation Xrotation Zrotation
      JOINT LeftShoulder
      {
       OFFSET 13.519700 0.000000 0.000000
       CHANNELS 3 Yrotation Xrotation Zrotation
       JOINT LeftElbow
       {
        OFFSET 0.000000 -29.696600 0.000000
        CHANNELS 3 Yrotation Xrotation Zrotation
        JOINT LeftWrist
        {
         OFFSET 0.000000 -24.004700 0.000000
         CHANNELS 3 Yrotation Xrotation Zrotation
         End Site
         {
          OFFSET 0.000000 -17.728500 0.000000
         }
        }
       }
      }
     }
    }
   }
  }
 }
 JOINT RightHip
 {
  OFFSET -7.771700 -0.012900 -0.001300
  CHANNELS 3 Yrotation Xrotation Zrotation
  JOINT RightKnee
  {
   OFFSET 0.000000 -40.869800 0.001200
   CHANNELS 3 Yrotation Xrotation Zrotation
   JOINT RightAnkle
   {
    OFFSET 0.000000 -39.717900 0.002100
    CHANNELS 3 Yrotation Xrotation Zrotation
    JOINT RightToe
    {
     OFFSET 0.000000 -4.965400 11.033500
     CHANNELS 3 Yrotation Xrotation Zrotation
     End Site
     {
      OFFSET 0.000000 -1.423100 5.872300
     }
    }
   }
  }
 }
 JOINT LeftHip
 {
  OFFSET 7.771700 -0.012900 -0.001300
  CHANNELS 3 Yrotation Xrotation Zrotation
  JOINT LeftKnee
  {
   OFFSET 0.000000 -40.869800 0.001200
   CHANNELS 3 Yrotation Xrotation Zrotation
   JOINT LeftAnkle
   {
    OFFSET 0.000000 -39.717900 0.002100
    CHANNELS 3 Yrotation Xrotation Zrotation
    JOINT LeftToe
    {
     OFFSET 0.000000 -4.965400 11.033500
     CHANNELS 3 Yrotation Xrotation Zrotation
     End Site
     {
      OFFSET 0.000000 -1.423100 5.872300
     }
    }
   }
  }
 }
}
MOTION
Frames: 9
Frame Time: 0.008333
-41.372529 43.938327 34.157069 177.223964 -34.199204 0.048525 -0.383311 21.279303 2.836433 -0.123344 2.854480 0.471120 -0.189023 4.650405 0.765118 -0.390285 18.102323 2.968142 -2.254206 16.230311 -2.890271 -1.717626 -8.644885 -2.532448 11.307203 0.206616 -3.109418 -4.842834 -20.870288 -17.855660 97.121754 -57.013348 -90.789363 4.634972 -12.890606 -58.160458 -19.269934 -2.289801 -5.198403 12.019266 -8.549897 2.095613 -113.940591 -27.694571 124.473305 -11.683797 -10.486359 54.304477 -2.585467 -58.399530 9.319354 -152.156752 70.380187 -151.520871 -13.660682 -24.490209 8.800452 0.300547 -0.955915 0.142186 2.843895 -47.584072 -6.479069 173.450215 63.699431 174.325447 -0.363043 -34.832876 1.597724 0.162334 0.343663 0.011871
-41.363494 43.932430 34.132878 177.150632 -33.986466 0.090930 -0.337810 21.189582 2.882859 -0.120470 2.833730 0.474417 -0.184348 4.618220 0.770782 -0.379056 18.042024 2.978749 -2.232178 16.204127 -2.882082 -1.705530 -8.677374 -2.550519 11.307204 0.207809 -3.031753 -4.887243 -20.781032 -17.728574 97.418963 -56.941846 -91.120805 4.616288 -12.814570 -58.006593 -19.221116 -2.293115 -5.163775 12.135322 -8.498204 2.082723 -114.281208 -27.907303 124.726426 -11.463949 -10.436504 54.361902 -2.539912 -58.622993 9.348410 -152.137064 70.343654 -151.501926 -13.645636 -24.482688 8.799622 0.296881 -0.978721 0.146163 2.868200 -47.769005 -6.489535 173.391880 63.679703 174.271781 -0.352779 -34.890684 1.563763 0.162763 0.353084 0.019786
-41.354878 43.927403 34.108073 177.066771 -33.788871 0.139567 -0.285307 21.109878 2.926434 -0.117527 2.814291 0.478015 -0.179585 4.588093 0.776989 -0.382384 17.977635 2.939736 -2.214105 16.193636 -2.865813 -1.668997 -8.712921 -2.535482 11.319380 0.205096 -2.907168 -4.917864 -20.687313 -17.614372 97.710342 -56.865158 -91.455376 4.599319 -12.743278 -57.848797 -19.193270 -2.288888 -5.135990 12.283731 -8.447179 2.124952 -114.631018 -28.139465 124.969562 -11.224170 -10.381515 54.449927 -2.495680 -58.830095 9.380039 -152.123339 70.309407 -151.492843 -13.624271 -24.474166 8.792648 0.288949 -0.992151 0.146659 2.877287 -47.931497 -6.487014 173.334153 63.665031 174.205796 -0.337792 -34.966821 1.529523 0.160878 0.379080 0.008844
-41.344089 43.922231 34.084255 177.018915 -33.595619 0.152928 -0.257521 21.030032 2.984197 -0.114648 2.795863 0.481925 -0.174999 4.559523 0.783719 -0.338428 17.935134 3.055316 -2.232557 16.151293 -2.932656 -1.669991 -8.737632 -2.569871 11.283674 0.206239 -2.951464 -4.945348 -20.588973 -17.485089 97.989826 -56.792616 -91.787505 4.584899 -12.680027 -57.684680 -19.145832 -2.325100 -5.157325 12.383477 -8.404838 2.092492 -114.993782 -28.409942 125.202187 -10.954322 -10.318662 54.545210 -2.509031 -59.030145 9.443993 -152.124953 70.272835 -151.496964 -13.606147 -24.465818 8.783908 0.279706 -1.009272 0.146280 2.902268 -48.107795 -6.486889 173.287556 63.635751 174.183047 -0.343881 -34.999823 1.500272 0.171490 0.366755 0.016080
-41.332496 43.917420 34.060531 176.969976 -33.412165 0.160389 -0.224467 20.956146 3.048585 -0.112243 2.778046 0.486166 -0.171114 4.531878 0.790951 -0.313406 17.887971 3.122290 -2.222476 16.121892 -2.953913 -1.700497 -8.746164 -2.629527 11.263057 0.207669 -2.951126 -4.969379 -20.496049 -17.369700 98.268231 -56.731621 -92.114608 4.575220 -12.627442 -57.517637 -19.084100 -2.335313 -5.139727 12.476754 -8.375838 2.068410 -115.368343 -28.728589 125.420861 -10.654581 -10.242629 54.635169 -2.533395 -59.217689 9.516853 -152.142958 70.240421 -151.512679 -13.581932 -24.465393 8.763610 0.296796 -1.017960 0.151825 2.890385 -48.271005 -6.460303 173.250711 63.611497 174.152095 -0.333765 -35.049353 1.469340 0.172717 0.367850 0.033358
-41.326376 43.912012 34.037981 176.942716 -33.228194 0.186762 -0.218921 20.878568 3.080453 -0.110241 2.760722 0.490532 -0.167861 4.505056 0.798375 -0.298143 17.838010 3.163696 -2.212898 16.103118 -2.971173 -1.718518 -8.758446 -2.674350 11.245797 0.210282 -2.926632 -4.995395 -20.414224 -17.265700 98.549752 -56.683673 -92.427128 4.572522 -12.592640 -57.356490 -19.072422 -2.359918 -5.176969 12.608266 -8.353568 2.135293 -115.753323 -29.098087 125.621247 -10.334437 -10.157053 54.713942 -2.534007 -59.406964 9.545882 -152.137317 70.200596 -151.513578 -13.600109 -24.475881 8.762069 0.303476 -1.014394 0.157514 2.895918 -48.436389 -6.478299 173.230587 63.596610 174.126342 -0.322182 -35.087247 1.456770 0.169618 0.371677 0.028751
-41.317100 43.907624 34.014507 176.897544 -33.061597 0.203083 -0.190934 20.815755 3.133031 -0.108614 2.743884 0.494629 -0.165176 4.478973 0.805367 -0.285409 17.789311 3.202875 -2.229978 16.086830 -3.028019 -1.681282 -8.780592 -2.659522 11.227344 0.212756 -2.901258 -5.024774 -20.346109 -17.169572 98.831394 -56.646165 -92.719043 4.576668 -12.574945 -57.211807 -19.060700 -2.382518 -5.212588 12.734140 -8.342327 2.208280 -116.143610 -29.516861 125.806863 -10.021580 -10.071274 54.779803 -2.538473 -59.576845 9.595017 -152.144380 70.164725 -151.522098 -13.586095 -24.490826 8.757387 0.293121 -1.000103 0.150893 2.900788 -48.582148 -6.473041 173.174882 63.571867 174.082415 -0.324958 -35.133472 1.425851 0.174909 0.373397 0.029233
-41.309529 43.904355 33.989717 176.867132 -32.913555 0.220701 -0.172462 20.718853 3.153639 -0.116217 2.775834 0.522584 -0.163214 4.453810 0.811951 -0.275788 17.742195 3.239905 -2.199120 16.075603 -3.022636 -1.624126 -8.804183 -2.660692 11.210614 0.216084 -2.877358 -5.055976 -20.291111 -17.079715 99.110068 -56.612185 -92.988791 4.586409 -12.568079 -57.095246 -19.009375 -2.380442 -5.199299 12.818455 -8.346704 2.230725 -116.516863 -29.962488 125.980711 -9.749543 -9.990439 54.841328 -2.530467 -59.726372 9.615171 -152.194474 70.129798 -151.568106 -13.585619 -24.519408 8.759643 0.289358 -1.005368 0.149991 2.901760 -48.709233 -6.478620 173.122331 63.548182 174.037227 -0.328538 -35.176455 1.399370 0.178756 0.373293 0.028725
-41.303710 43.897783 33.970559 176.838045 -32.735077 0.244970 -0.170007 20.660039 3.197914 -0.110401 2.735653 0.514553 -0.161747 4.430062 0.818623 -0.267858 17.697335 3.276816 -2.183048 16.065689 -3.037509 -1.589636 -8.812597 -2.666400 11.196582 0.220765 -2.856590 -5.086511 -20.246331 -16.997694 99.376325 -56.569855 -93.235139 4.656035 -12.530244 -57.020695 -18.916350 -2.348836 -5.110886 12.854167 -8.361732 2.170909 -116.835051 -30.382525 126.137676 -9.535168 -9.909742 54.909394 -2.512782 -59.907697 9.623740 -152.230052 70.094422 -151.602101 -13.581624 -24.602243 8.775553 0.239799 -0.946767 0.129493 2.916405 -48.873393 -6.491891 173.109385 63.533325 174.018003 -0.304418 -35.197773 1.386596 0.160730 0.364926 0.022688
